<?xml version="1.0" encoding="utf-8"?>
<!-- Generator: Adobe Illustrator 25.0.0, SVG Export Plug-In . SVG Version: 6.00 Build 0)  -->
<svg version="1.1" id="Layer_1" focusable="false" xmlns="http://www.w3.org/2000/svg" xmlns:xlink="http://www.w3.org/1999/xlink"
	 x="0px" y="0px" viewBox="0 0 40 40" style="enable-background:new 0 0 40 40;" xml:space="preserve">
<style type="text/css">
	.st0{fill:none;stroke:#000000;stroke-width:2;}
</style>
<path class="st0" d="M21.6,8.7c2.6,1.3,7.3-0.4,11.3,0.5c3.9,0.9,7.1,4.5,4.7,5.9s-10.3,0.5-13.5,3.1c-3.2,2.5-1.8,8.5-3.4,13.1
	c-1.6,4.6-6.3,8-8.3,5.7c-2-2.2-1.2-10.1-3.1-14.4c-1.9-4.3-6.4-5.2-7.4-7.1c-1-1.8,1.5-4.7,4.3-6c2.7-1.3,5.7-1.2,7.8-2.7
	c2-1.5,3.2-4.7,3.9-4.2C18.6,3.2,19,7.4,21.6,8.7z"/>
</svg>
