<?xml version="1.0" encoding="utf-8"?>
<!-- Generator: Adobe Illustrator 25.0.0, SVG Export Plug-In . SVG Version: 6.00 Build 0)  -->
<svg version="1.1" id="Capa_1" xmlns="http://www.w3.org/2000/svg" xmlns:xlink="http://www.w3.org/1999/xlink" x="0px" y="0px"
	 viewBox="0 0 512 512" style="enable-background:new 0 0 512 512;" xml:space="preserve">
<style type="text/css">
	.st0{fill:#AAAAAA;}
</style>
<g>
	<path class="st0" d="M102.4,0h102.4v102.4H102.4V0z"/>
	<path class="st0" d="M307.2,0h102.4v102.4H307.2V0z"/>
	<path class="st0" d="M0,102.4h102.4v102.4H0L0,102.4z"/>
	<path class="st0" d="M204.8,102.4h102.4v102.4H204.8V102.4z"/>
	<path class="st0" d="M102.4,204.8h102.4v102.4H102.4V204.8z"/>
	<path class="st0" d="M307.2,204.8h102.4v102.4H307.2V204.8z"/>
	<path class="st0" d="M0,307.2h102.4v102.4H0L0,307.2z"/>
	<path class="st0" d="M204.8,307.2h102.4v102.4H204.8V307.2z"/>
	<path class="st0" d="M409.6,102.4H512v102.4H409.6V102.4z"/>
</g>
<path class="st0" d="M409.6,307.2H512v102.4H409.6V307.2z"/>
<path class="st0" d="M102.4,409.6h102.4V512H102.4V409.6z"/>
<path class="st0" d="M307.2,409.6h102.4V512H307.2V409.6z"/>
</svg>
