<?xml version="1.0" encoding="utf-8"?>
<!-- Generator: Adobe Illustrator 25.0.0, SVG Export Plug-In . SVG Version: 6.00 Build 0)  -->
<svg version="1.1" id="Layer_1" xmlns="http://www.w3.org/2000/svg" xmlns:xlink="http://www.w3.org/1999/xlink" x="0px" y="0px"
	 viewBox="0 0 1440 170.1" style="enable-background:new 0 0 1440 170.1;" xml:space="preserve">
<style type="text/css">
	.st0{fill:#F3F4F5;}
</style>
<path class="st0" d="M0,91l48-6.6c48-6.4,144-20,240-39.5c96-20,192-45.9,288-29.7C672,31.7,768,91,864,97.6c96,6.4,192-39.4,288-56
	s192-3.1,240,3.3l48,6.6v118.6h-48c-48,0-144,0-240,0s-192,0-288,0s-192,0-288,0s-192,0-288,0s-192,0-240,0H0V91z"/>
</svg>
