<?xml version="1.0" encoding="utf-8"?>
<!-- Generator: Adobe Illustrator 25.0.0, SVG Export Plug-In . SVG Version: 6.00 Build 0)  -->
<svg version="1.1" id="Layer_1" xmlns="http://www.w3.org/2000/svg" xmlns:xlink="http://www.w3.org/1999/xlink" x="0px" y="0px"
	 viewBox="0 0 1440 320" style="enable-background:new 0 0 1440 320;" xml:space="preserve">
<style type="text/css">
	.st0{fill:#F3F4F5;}
</style>
<path class="st0" d="M0,260.6h48c48,0,144,0,240,6.6c96,6.4,192,20,288,3.3c96-16.7,192-62.5,288-62.6c96,0.2,192,45.9,288,59.4
	c96,13.2,192-6.6,240-16.5l48-9.9V320h-48c-48,0-144,0-240,0s-192,0-288,0s-192,0-288,0s-192,0-288,0s-192,0-240,0H0V260.6z"/>
</svg>
